# xmcd
#
# Track frame offsets:
#	150
#	17900
#	37530
#	55091
#	73326
#	88945
#	104491
#	122567
#	138236
#	152999
#	168213
#	187272
#	200673
#	216352
#	231509
#	249076
#	264597
#	280160
#	290341
#
# Disc length: 4115 seconds
#
# Revision: 1
# Processed by: cddbd v1.5.2PL0 Copyright (c) Steve Scherf et al.
# Submitted via: audiograbber 1.83.01
#
DISCID=1e101113
DTITLE=Various Artist - ERG NCT 153
DYEAR=2007
DGENRE=Country
TTITLE0=Kellie Pickler - I Wonder
TTITLE1=Los Lonely Boys ft. Willie Nelson - Outlaws
TTITLE2=Lonestar - Nothing To Prove
TTITLE3=Luke Bryan - All My Friends Say
TTITLE4=Rascall Flatts - Stand
TTITLE5=Johnny Reid - Love Sweet Love
TTITLE6=Pirates Of The Mississippi - Fish Bait
TTITLE7=Cole Deggs and The Lonesome - I Got More
TTITLE8=Montgomery Gentry - Lucky Man
TTITLE9=Taylor Swift - Teardrops On My Guitar
TTITLE10=Heartland - Built To Last
TTITLE11=Russell Walker - Talkin' Dirty
TTITLE12=Laura Bryna - I Dont Have A Thing To Wear
TTITLE13=Flynnville Train - Last Good Time
TTITLE14=Dusty Drake - Say Yes
TTITLE15=Jerrod Niemann - I Love Women (My Mama Can't Stand)
TTITLE16=Beveryley Mitchell - Heaven On Earth Down Here
TTITLE17=Sunny Sweeney - If I Could
TTITLE18=Miranda Lambert - Famous In A Small Town
EXTD=
EXTT0=
EXTT1=
EXTT2=
EXTT3=
EXTT4=
EXTT5=
EXTT6=
EXTT7=
EXTT8=
EXTT9=
EXTT10=
EXTT11=
EXTT12=
EXTT13=
EXTT14=
EXTT15=
EXTT16=
EXTT17=
EXTT18=
PLAYORDER=
